# xmcd
# 
# Track frame offsets:
#     150
#     20051
#     39413
#     58320
#     59686
#     76336
#     92847
#     113378
#     135794
#     153412
#     166667
#     184224
#     200826
# 
# Disc length: 2905
# 
# Revision: 2
# Processed by: cddbd v1.5.2PL0 Copyright (c) Steve Scherf et al.
# Submitted via: BonkEnc v1.0.8
# 
DISCID=a90b570d
DTITLE=BADA - Aurora - Happy Face
DYEAR=2004
DGENRE=KPop
TTITLE0=해피 페이스 (Happy Face)
TTITLE1=오로라 (Aurora)
TTITLE2=Eyes
TTITLE3=Interlude
TTITLE4=Go by
TTITLE5=축제 (Good luck)
TTITLE6=Into You
TTITLE7=Thank you
TTITLE8=Sweet potato
TTITLE9=Dreaming
TTITLE10=Higher
TTITLE11=Blue Juice
TTITLE12=Little Boy
EXTD=BADA2 YEAR: 2004
EXTT0=
EXTT1=
EXTT2=
EXTT3=
EXTT4=
EXTT5=
EXTT6=
EXTT7=
EXTT8=
EXTT9=
EXTT10=
EXTT11=
EXTT12=
PLAYORDER=
